<?xml version="1.0" encoding="utf-8"?>
<!-- Generator: Adobe Illustrator 27.4.1, SVG Export Plug-In . SVG Version: 6.00 Build 0)  -->
<svg version="1.1" id="Calque_1" xmlns="http://www.w3.org/2000/svg" xmlns:xlink="http://www.w3.org/1999/xlink" x="0px" y="0px"
	 viewBox="0 0 92.3 77.3" style="enable-background:new 0 0 92.3 77.3;" xml:space="preserve">
<style type="text/css">
	.st0{fill:#CCE9F2;}
	.st1{fill:#476890;}
	.st2{fill:#9BD5E6;}
	.st3{fill:#1F2D50;}
</style>
<g>
	<path class="st0" d="M46.2,17.7l-33.8-6.8l8.2-7.2L46.2,0l25.6,3.7l8.2,7.2L46.2,17.7z"/>
	<polygon class="st0" points="46.2,17.7 26.9,38.3 65.4,38.3 	"/>
	<polygon class="st1" points="12.4,10.9 26.9,38.3 46.2,17.7 	"/>
	<polygon class="st2" points="46.2,17.7 65.4,38.3 80,10.9 	"/>
	<polygon class="st1" points="26.9,38.3 46.2,77.3 65.4,38.3 	"/>
	<polygon class="st3" points="65.4,38.3 46.2,77.3 92.3,21.7 	"/>
	<polygon class="st3" points="26.9,38.3 46.2,77.3 0,21.7 	"/>
	<polygon class="st2" points="0,21.7 26.9,38.3 12.4,10.9 	"/>
	<polygon class="st1" points="80,10.9 65.4,38.3 92.3,21.7 	"/>
</g>
</svg>
